<svg xmlns="http://www.w3.org/2000/svg" xmlns:xlink="http://www.w3.org/1999/xlink" width="500" zoomAndPan="magnify" viewBox="0 0 375 374.999991" height="500" preserveAspectRatio="xMidYMid meet" version="1.0"><defs><clipPath id="43ec1bd27d"><path d="M 11 9 L 375 9 L 375 374.988281 L 11 374.988281 Z M 11 9 " clip-rule="nonzero"/></clipPath></defs><rect x="-37.5" width="450" fill="#ffffff" y="-37.499999" height="449.999989" fill-opacity="1"/><rect x="-37.5" width="450" fill="#ffffff" y="-37.499999" height="449.999989" fill-opacity="1"/><path fill="#e2e5eb" d="M 239.863281 128.0625 L 238.835938 128.492188 L 214.105469 138.859375 L 184.011719 151.46875 C 182.890625 116.84375 164.230469 86.179688 157.375 78.046875 C 156.285156 76.753906 155.386719 75.324219 154.3125 74.011719 C 148.722656 67.195312 140.976562 63.300781 132.863281 66.699219 C 124.011719 70.410156 119.84375 80.59375 123.554688 89.445312 C 150.253906 156.050781 79.480469 209.449219 79.480469 209.449219 L 122.8125 312.847656 C 122.8125 312.847656 156.96875 306.757812 194.113281 297.6875 L 218.328125 291.414062 C 243.441406 284.476562 266.824219 276.480469 278.714844 268.394531 C 288.355469 261.769531 290.515625 255.800781 287.152344 247.78125 C 283.789062 239.753906 274.558594 235.976562 266.539062 239.339844 L 272.09375 237.011719 C 281.332031 233.140625 285.679688 222.511719 281.808594 213.273438 C 277.9375 204.035156 267.308594 199.683594 258.070312 203.554688 L 263.019531 201.480469 C 272.476562 197.519531 276.929688 186.640625 272.964844 177.183594 C 269.003906 167.726562 258.125 163.273438 248.667969 167.238281 L 255.140625 164.523438 C 265.210938 160.304688 269.953125 148.722656 265.734375 138.652344 C 261.515625 128.585938 249.933594 123.84375 239.863281 128.0625 " fill-opacity="1" fill-rule="nonzero"/><path fill="#e2e5eb" d="M 114.6875 329.261719 L 115.820312 328.785156 C 115.746094 328.742188 115.671875 328.695312 115.59375 328.652344 C 117.902344 326.828125 118.820312 323.628906 117.625 320.78125 L 70.832031 209.109375 C 69.394531 205.6875 65.453125 204.070312 62.027344 205.507812 L 38.226562 215.480469 C 38.226562 215.472656 38.222656 215.460938 38.222656 215.453125 L 14.164062 225.53125 C 14.164062 225.542969 14.164062 225.554688 14.167969 225.5625 L 12.394531 226.304688 C 8.96875 227.742188 7.355469 231.683594 8.789062 235.109375 L 55.589844 346.78125 C 57.023438 350.207031 60.964844 351.820312 64.390625 350.382812 L 114.023438 329.585938 C 114.25 329.488281 114.472656 329.378906 114.6875 329.261719 " fill-opacity="1" fill-rule="nonzero"/><g clip-path="url(#43ec1bd27d)"><path fill="#e2e5eb" d="M 193.988281 9.199219 C 93.140625 9.199219 11.09375 91.246094 11.09375 192.09375 C 11.09375 199.480469 11.53125 206.765625 12.394531 213.929688 L 36.914062 203.65625 C 36.636719 199.835938 36.496094 195.984375 36.496094 192.09375 C 36.496094 105.25 107.144531 34.601562 193.988281 34.601562 C 280.832031 34.601562 351.480469 105.25 351.480469 192.09375 C 351.480469 278.9375 280.832031 349.585938 193.988281 349.585938 C 170.78125 349.585938 148.734375 344.546875 128.878906 335.492188 L 128.867188 335.492188 C 127.617188 336.121094 125.878906 336.914062 123.9375 337.726562 L 98.863281 348.246094 C 126.589844 365.203125 159.175781 374.988281 193.988281 374.988281 C 294.832031 374.988281 376.882812 292.9375 376.882812 192.09375 C 376.882812 91.246094 294.832031 9.199219 193.988281 9.199219 " fill-opacity="1" fill-rule="nonzero"/></g><path fill="#5898f3" d="M 230.667969 118.863281 L 229.636719 119.296875 L 204.90625 129.660156 L 174.8125 142.273438 C 173.691406 107.644531 155.035156 76.980469 148.175781 68.847656 C 147.085938 67.554688 146.1875 66.125 145.113281 64.816406 C 139.527344 57.996094 131.78125 54.101562 123.667969 57.5 C 114.816406 61.210938 110.648438 71.394531 114.355469 80.246094 C 141.054688 146.851562 70.28125 200.253906 70.28125 200.253906 L 113.613281 303.648438 C 113.613281 303.648438 147.769531 297.558594 184.914062 288.488281 L 209.128906 282.214844 C 234.246094 275.277344 257.625 267.28125 269.515625 259.195312 C 279.15625 252.570312 281.316406 246.601562 277.957031 238.582031 C 274.59375 230.558594 265.363281 226.777344 257.339844 230.140625 L 262.894531 227.8125 C 272.132812 223.941406 276.484375 213.3125 272.609375 204.074219 C 268.738281 194.835938 258.109375 190.484375 248.871094 194.355469 L 253.820312 192.285156 C 263.277344 188.320312 267.730469 177.441406 263.769531 167.984375 C 259.804688 158.527344 248.925781 154.074219 239.46875 158.039062 L 245.945312 155.324219 C 256.011719 151.105469 260.753906 139.523438 256.535156 129.457031 C 252.316406 119.386719 240.734375 114.648438 230.667969 118.863281 " fill-opacity="1" fill-rule="nonzero"/><path fill="#5898f3" d="M 105.488281 320.0625 L 106.621094 319.585938 C 106.546875 319.542969 106.472656 319.496094 106.394531 319.453125 C 108.703125 317.628906 109.621094 314.429688 108.429688 311.582031 L 61.632812 199.914062 C 60.195312 196.488281 56.253906 194.875 52.828125 196.308594 L 29.027344 206.28125 C 29.027344 206.273438 29.027344 206.265625 29.023438 206.253906 L 4.964844 216.332031 C 4.964844 216.34375 4.96875 216.355469 4.96875 216.363281 L 3.195312 217.109375 C -0.230469 218.542969 -1.84375 222.484375 -0.40625 225.910156 L 46.390625 337.582031 C 47.824219 341.007812 51.765625 342.621094 55.195312 341.1875 L 104.824219 320.386719 C 105.054688 320.292969 105.273438 320.179688 105.488281 320.0625 " fill-opacity="1" fill-rule="nonzero"/><path fill="#5898f3" d="M 184.789062 0 C 83.945312 0 1.894531 82.050781 1.894531 182.894531 C 1.894531 190.28125 2.332031 197.566406 3.195312 204.730469 L 27.714844 194.457031 C 27.441406 190.636719 27.296875 186.785156 27.296875 182.894531 C 27.296875 96.050781 97.945312 25.402344 184.789062 25.402344 C 271.632812 25.402344 342.28125 96.050781 342.28125 182.894531 C 342.28125 269.738281 271.632812 340.386719 184.789062 340.386719 C 161.582031 340.386719 139.535156 335.347656 119.679688 326.292969 L 119.667969 326.292969 C 118.417969 326.925781 116.683594 327.71875 114.742188 328.527344 L 89.664062 339.046875 C 117.390625 356.003906 149.976562 365.789062 184.789062 365.789062 C 285.636719 365.789062 367.683594 283.742188 367.683594 182.894531 C 367.683594 82.050781 285.636719 0 184.789062 0 " fill-opacity="1" fill-rule="nonzero"/></svg>