<svg xmlns="http://www.w3.org/2000/svg" xmlns:xlink="http://www.w3.org/1999/xlink" width="500" zoomAndPan="magnify" viewBox="0 0 375 374.999991" height="500" preserveAspectRatio="xMidYMid meet" version="1.0"><rect x="-37.5" width="450" fill="#ffffff" y="-37.499999" height="449.999989" fill-opacity="1"/><rect x="-37.5" width="450" fill="#ffffff" y="-37.499999" height="449.999989" fill-opacity="1"/><path fill="#5898f3" d="M 206.871094 336.261719 C 200.5 337.082031 193.980469 337.5 187.5 337.5 C 145.183594 337.5 105.550781 319.800781 77.382812 289.285156 L 96.429688 289.285156 C 105.304688 289.285156 112.5 282.089844 112.5 273.214844 C 112.5 264.335938 105.304688 257.144531 96.429688 257.144531 L 37.5 257.144531 C 28.625 257.144531 21.429688 264.335938 21.429688 273.214844 L 21.429688 332.144531 C 21.429688 341.019531 28.625 348.214844 37.5 348.214844 C 46.375 348.214844 53.570312 341.019531 53.570312 332.144531 L 53.570312 310.855469 C 87.78125 348.054688 136 369.644531 187.5 369.644531 C 195.355469 369.644531 203.253906 369.132812 210.984375 368.144531 C 219.792969 367.007812 226.007812 358.949219 224.871094 350.148438 C 223.734375 341.347656 215.65625 335.152344 206.871094 336.261719 Z M 163.292969 39.4375 C 171.21875 38.152344 179.363281 37.5 187.5 37.5 C 229.859375 37.5 269.46875 55.1875 297.625 85.714844 L 278.570312 85.714844 C 269.695312 85.714844 262.5 92.910156 262.5 101.785156 C 262.5 110.664062 269.695312 117.855469 278.570312 117.855469 L 337.5 117.855469 C 346.375 117.855469 353.570312 110.664062 353.570312 101.785156 L 353.570312 42.855469 C 353.570312 33.980469 346.375 26.785156 337.5 26.785156 C 328.625 26.785156 321.429688 33.980469 321.429688 42.855469 L 321.429688 64.125 C 287.230469 26.925781 239.046875 5.355469 187.5 5.355469 C 177.644531 5.355469 167.757812 6.148438 158.136719 7.714844 C 149.375 9.140625 143.433594 17.394531 144.855469 26.152344 C 146.28125 34.914062 154.539062 40.855469 163.292969 39.4375 Z M 26.195312 230.144531 C 34.957031 228.695312 40.878906 220.429688 39.4375 211.671875 C 39.292969 210.769531 39.148438 209.867188 39.019531 208.960938 C 38.015625 201.890625 37.5 194.667969 37.5 187.5 C 37.5 180.332031 38.015625 173.109375 39.015625 166.050781 C 43.914062 131.8125 60.566406 100.582031 85.714844 77.351562 L 85.714844 96.429688 C 85.714844 105.304688 92.910156 112.5 101.785156 112.5 C 110.664062 112.5 117.855469 105.304688 117.855469 96.429688 L 117.855469 37.5 C 117.855469 28.625 110.664062 21.429688 101.785156 21.429688 L 42.855469 21.429688 C 33.980469 21.429688 26.785156 28.625 26.785156 37.5 C 26.785156 46.375 33.980469 53.570312 42.855469 53.570312 L 64.082031 53.570312 C 33.449219 81.796875 13.164062 119.8125 7.195312 161.507812 C 5.972656 170.078125 5.355469 178.820312 5.355469 187.5 C 5.355469 196.179688 5.972656 204.921875 7.199219 213.5 C 7.359375 214.640625 7.53125 215.773438 7.726562 216.90625 C 9.019531 224.773438 15.835938 230.355469 23.554688 230.355469 C 24.429688 230.355469 25.3125 230.289062 26.195312 230.144531 Z M 326.785156 326.785156 L 304.820312 326.785156 C 345.796875 292.441406 369.644531 242.148438 369.644531 187.5 C 369.644531 177.644531 368.851562 167.757812 367.285156 158.136719 C 365.859375 149.375 357.578125 143.425781 348.847656 144.855469 C 340.082031 146.28125 334.140625 154.539062 335.566406 163.296875 C 336.847656 171.21875 337.5 179.363281 337.5 187.5 C 337.5 232.585938 317.792969 274.078125 283.929688 302.375 L 283.929688 283.929688 C 283.929688 275.050781 276.734375 267.855469 267.855469 267.855469 C 258.980469 267.855469 251.785156 275.050781 251.785156 283.929688 L 251.785156 342.855469 C 251.785156 351.734375 258.980469 358.929688 267.855469 358.929688 L 326.785156 358.929688 C 335.664062 358.929688 342.855469 351.734375 342.855469 342.855469 C 342.855469 333.980469 335.664062 326.785156 326.785156 326.785156 Z M 326.785156 326.785156 " fill-opacity="1" fill-rule="nonzero"/><path fill="#e2e5eb" d="M 187.5 375 C 139.683594 375 93.523438 356.519531 58.929688 323.898438 L 58.929688 332.144531 C 58.929688 343.960938 49.316406 353.570312 37.5 353.570312 C 25.683594 353.570312 16.070312 343.960938 16.070312 332.144531 L 16.070312 273.214844 C 16.070312 261.394531 25.683594 251.785156 37.5 251.785156 L 96.429688 251.785156 C 108.246094 251.785156 117.855469 261.394531 117.855469 273.214844 C 117.855469 285.03125 108.246094 294.644531 96.429688 294.644531 L 90.394531 294.644531 C 116.839844 318.609375 151.570312 332.144531 187.5 332.144531 C 193.742188 332.144531 200.03125 331.742188 206.1875 330.941406 C 206.191406 330.941406 206.195312 330.941406 206.203125 330.941406 C 217.847656 329.484375 228.675781 337.769531 230.1875 349.457031 C 231.691406 361.179688 223.386719 371.941406 211.671875 373.453125 C 203.695312 374.480469 195.566406 375 187.5 375 Z M 53.570312 305.496094 C 55.039062 305.496094 56.480469 306.101562 57.515625 307.226562 C 90.863281 343.488281 138.242188 364.285156 187.5 364.285156 C 195.113281 364.285156 202.785156 363.792969 210.300781 362.828125 C 216.160156 362.074219 220.3125 356.6875 219.558594 350.832031 C 218.800781 344.984375 213.4375 340.820312 207.546875 341.578125 C 200.941406 342.429688 194.195312 342.855469 187.5 342.855469 C 144.3125 342.855469 102.746094 324.660156 73.445312 292.921875 C 72 291.359375 71.625 289.085938 72.476562 287.136719 C 73.328125 285.1875 75.257812 283.929688 77.382812 283.929688 L 96.429688 283.929688 C 102.335938 283.929688 107.144531 279.125 107.144531 273.214844 C 107.144531 267.304688 102.335938 262.5 96.429688 262.5 L 37.5 262.5 C 31.589844 262.5 26.785156 267.304688 26.785156 273.214844 L 26.785156 332.144531 C 26.785156 338.050781 31.589844 342.855469 37.5 342.855469 C 43.410156 342.855469 48.214844 338.050781 48.214844 332.144531 L 48.214844 310.855469 C 48.214844 308.644531 49.570312 306.664062 51.625 305.859375 C 52.257812 305.621094 52.917969 305.496094 53.570312 305.496094 Z M 337.5 123.214844 L 278.570312 123.214844 C 266.753906 123.214844 257.144531 113.605469 257.144531 101.785156 C 257.144531 89.96875 266.753906 80.355469 278.570312 80.355469 L 284.621094 80.355469 C 258.1875 56.390625 223.457031 42.855469 187.5 42.855469 C 179.65625 42.855469 171.796875 43.484375 164.152344 44.730469 C 164.152344 44.730469 164.152344 44.730469 164.148438 44.730469 C 152.507812 46.585938 141.457031 38.667969 139.5625 27.015625 C 138.648438 21.363281 139.988281 15.695312 143.332031 11.058594 C 146.679688 6.414062 151.628906 3.355469 157.28125 2.433594 C 167.191406 0.8125 177.363281 0 187.5 0 C 235.339844 0 281.492188 18.472656 316.070312 51.082031 L 316.070312 42.855469 C 316.070312 31.039062 325.683594 21.429688 337.5 21.429688 C 349.316406 21.429688 358.929688 31.039062 358.929688 42.855469 L 358.929688 101.785156 C 358.929688 113.605469 349.316406 123.214844 337.5 123.214844 Z M 278.570312 91.070312 C 272.664062 91.070312 267.855469 95.875 267.855469 101.785156 C 267.855469 107.695312 272.664062 112.5 278.570312 112.5 L 337.5 112.5 C 343.410156 112.5 348.214844 107.695312 348.214844 101.785156 L 348.214844 42.855469 C 348.214844 36.949219 343.410156 32.144531 337.5 32.144531 C 331.589844 32.144531 326.785156 36.949219 326.785156 42.855469 L 326.785156 64.125 C 326.785156 66.332031 325.429688 68.3125 323.375 69.117188 C 321.316406 69.921875 318.980469 69.378906 317.480469 67.75 C 284.160156 31.503906 236.78125 10.714844 187.5 10.714844 C 177.9375 10.714844 168.34375 11.484375 158.996094 13.007812 C 156.171875 13.460938 153.695312 14.996094 152.023438 17.320312 C 150.355469 19.644531 149.683594 22.480469 150.144531 25.300781 C 151.085938 31.125 156.59375 35.109375 162.445312 34.152344 C 170.652344 32.816406 179.082031 32.144531 187.5 32.144531 C 230.710938 32.144531 272.289062 50.339844 301.5625 82.082031 C 303.003906 83.644531 303.386719 85.914062 302.535156 87.863281 C 301.675781 89.8125 299.753906 91.070312 297.625 91.070312 Z M 163.292969 39.4375 L 163.34375 39.4375 Z M 23.554688 235.714844 C 13.027344 235.714844 4.144531 228.171875 2.433594 217.769531 C 2.238281 216.605469 2.0625 215.425781 1.890625 214.25 C 0.636719 205.445312 0 196.441406 0 187.5 C 0 178.554688 0.636719 169.554688 1.894531 160.75 C 7.34375 122.652344 24.660156 86.953125 51.054688 58.929688 L 42.855469 58.929688 C 31.039062 58.929688 21.429688 49.316406 21.429688 37.5 C 21.429688 25.683594 31.039062 16.070312 42.855469 16.070312 L 101.785156 16.070312 C 113.605469 16.070312 123.214844 25.683594 123.214844 37.5 L 123.214844 96.429688 C 123.214844 108.246094 113.605469 117.855469 101.785156 117.855469 C 89.96875 117.855469 80.355469 108.246094 80.355469 96.429688 L 80.355469 90.363281 C 61.050781 111.664062 48.386719 138.375 44.320312 166.8125 C 43.351562 173.636719 42.855469 180.601562 42.855469 187.5 C 42.855469 194.398438 43.351562 201.371094 44.320312 208.207031 L 44.722656 210.804688 C 45.652344 216.445312 44.332031 222.113281 40.992188 226.761719 C 37.65625 231.417969 32.710938 234.488281 27.0625 235.417969 C 25.890625 235.625 24.710938 235.714844 23.554688 235.714844 Z M 42.855469 26.785156 C 36.949219 26.785156 32.144531 31.589844 32.144531 37.5 C 32.144531 43.410156 36.949219 48.214844 42.855469 48.214844 L 64.082031 48.214844 C 66.289062 48.214844 68.269531 49.570312 69.074219 51.625 C 69.878906 53.679688 69.335938 56.015625 67.714844 57.515625 C 37.832031 85.050781 18.226562 122.25 12.5 162.273438 C 11.3125 170.570312 10.714844 179.0625 10.714844 187.5 C 10.714844 195.9375 11.3125 204.429688 12.5 212.738281 C 12.652344 213.839844 12.824219 214.933594 13 216.019531 C 13.957031 221.800781 19.394531 225.804688 25.3125 224.855469 C 25.3125 224.855469 25.3125 224.855469 25.316406 224.855469 C 28.140625 224.390625 30.617188 222.851562 32.28125 220.519531 C 33.949219 218.195312 34.613281 215.355469 34.144531 212.539062 L 33.710938 209.722656 C 32.671875 202.371094 32.144531 194.902344 32.144531 187.5 C 32.144531 180.089844 32.671875 172.625 33.710938 165.292969 C 38.730469 130.222656 55.90625 97.589844 82.078125 73.417969 C 83.640625 71.972656 85.917969 71.59375 87.863281 72.445312 C 89.8125 73.300781 91.070312 75.226562 91.070312 77.351562 L 91.070312 96.429688 C 91.070312 102.335938 95.875 107.144531 101.785156 107.144531 C 107.695312 107.144531 112.5 102.335938 112.5 96.429688 L 112.5 37.5 C 112.5 31.589844 107.695312 26.785156 101.785156 26.785156 Z M 326.785156 364.285156 L 267.855469 364.285156 C 256.039062 364.285156 246.429688 354.675781 246.429688 342.855469 L 246.429688 283.929688 C 246.429688 272.109375 256.039062 262.5 267.855469 262.5 C 279.675781 262.5 289.285156 272.109375 289.285156 283.929688 L 289.285156 290.28125 C 316.65625 263.304688 332.144531 226.46875 332.144531 187.5 C 332.144531 179.65625 331.515625 171.796875 330.269531 164.152344 C 328.371094 152.492188 336.320312 141.460938 347.984375 139.5625 C 353.605469 138.652344 359.28125 139.976562 363.9375 143.324219 C 368.59375 146.671875 371.652344 151.628906 372.574219 157.273438 C 374.1875 167.195312 375 177.359375 375 187.5 C 375 238.332031 354.652344 286.398438 318.730469 321.429688 L 326.785156 321.429688 C 338.605469 321.429688 348.214844 331.039062 348.214844 342.855469 C 348.214844 354.675781 338.605469 364.285156 326.785156 364.285156 Z M 267.855469 273.214844 C 261.949219 273.214844 257.144531 278.019531 257.144531 283.929688 L 257.144531 342.855469 C 257.144531 348.765625 261.949219 353.570312 267.855469 353.570312 L 326.785156 353.570312 C 332.695312 353.570312 337.5 348.765625 337.5 342.855469 C 337.5 336.949219 332.695312 332.144531 326.785156 332.144531 L 304.820312 332.144531 C 302.566406 332.144531 300.558594 330.734375 299.792969 328.617188 C 299.015625 326.496094 299.65625 324.128906 301.382812 322.683594 C 341.363281 289.171875 364.285156 239.902344 364.285156 187.5 C 364.285156 177.9375 363.515625 168.347656 361.992188 158.996094 C 361.539062 156.175781 360 153.695312 357.675781 152.019531 C 355.34375 150.34375 352.5 149.65625 349.703125 150.140625 C 343.871094 151.085938 339.898438 156.601562 340.847656 162.433594 C 342.183594 170.644531 342.855469 179.082031 342.855469 187.5 C 342.855469 233.644531 322.632812 277.019531 287.367188 306.480469 C 285.765625 307.816406 283.554688 308.101562 281.664062 307.226562 C 279.777344 306.34375 278.570312 304.453125 278.570312 302.367188 L 278.570312 283.929688 C 278.570312 278.019531 273.765625 273.214844 267.855469 273.214844 Z M 267.855469 273.214844 " fill-opacity="1" fill-rule="nonzero"/><path fill="#e2e5eb" d="M 254.640625 77.378906 C 254.167969 77.378906 253.699219 77.261719 253.269531 77.003906 C 229.71875 62.957031 201.847656 56.84375 174.375 59.585938 C 172.878906 59.765625 171.589844 58.660156 171.4375 57.191406 C 171.289062 55.726562 172.359375 54.40625 173.832031 54.261719 C 202.441406 51.34375 231.476562 57.769531 256.007812 72.402344 C 257.277344 73.164062 257.695312 74.800781 256.9375 76.078125 C 256.441406 76.914062 255.550781 77.378906 254.640625 77.378906 Z M 318.507812 198.175781 C 318.457031 198.175781 318.394531 198.175781 318.347656 198.171875 C 316.871094 198.082031 315.75 196.8125 315.835938 195.335938 C 315.992188 192.746094 316.070312 190.128906 316.070312 187.5 C 316.070312 186.019531 317.269531 184.820312 318.75 184.820312 C 320.230469 184.820312 321.429688 186.019531 321.429688 187.5 C 321.429688 190.25 321.347656 192.964844 321.183594 195.660156 C 321.097656 197.082031 319.917969 198.175781 318.507812 198.175781 Z M 296.46875 263.363281 C 295.949219 263.363281 295.4375 263.21875 294.976562 262.90625 C 293.75 262.082031 293.421875 260.417969 294.246094 259.1875 C 305.0625 243.125 311.953125 225.277344 314.726562 206.148438 C 314.9375 204.679688 316.3125 203.695312 317.765625 203.882812 C 319.222656 204.097656 320.238281 205.457031 320.03125 206.917969 C 317.132812 226.847656 309.953125 245.4375 298.691406 262.179688 C 298.171875 262.949219 297.328125 263.363281 296.46875 263.363281 Z M 187.5 321.429688 C 173.492188 321.429688 159.679688 319.273438 146.464844 315.019531 C 145.054688 314.570312 144.277344 313.0625 144.734375 311.652344 C 145.1875 310.242188 146.699219 309.464844 148.105469 309.925781 C 160.789062 314.003906 174.046875 316.070312 187.5 316.070312 C 188.980469 316.070312 190.179688 317.269531 190.179688 318.75 C 190.179688 320.230469 188.980469 321.429688 187.5 321.429688 Z M 187.5 321.429688 " fill-opacity="1" fill-rule="nonzero"/><path fill="#e2e5eb" d="M 131.457031 308.898438 C 131.074219 308.898438 130.683594 308.8125 130.316406 308.640625 C 126.636719 306.898438 123.003906 304.964844 119.519531 302.914062 C 118.242188 302.160156 117.820312 300.519531 118.570312 299.246094 C 119.320312 297.96875 120.957031 297.546875 122.238281 298.296875 C 125.585938 300.273438 129.082031 302.125 132.609375 303.792969 C 133.949219 304.425781 134.519531 306.027344 133.886719 307.359375 C 133.417969 308.335938 132.460938 308.898438 131.457031 308.898438 Z M 131.457031 308.898438 " fill-opacity="1" fill-rule="nonzero"/><path fill="#e2e5eb" d="M 56.25 190.179688 C 54.769531 190.179688 53.570312 188.980469 53.570312 187.5 C 53.570312 169.351562 57.140625 151.75 64.171875 135.191406 C 64.757812 133.828125 66.335938 133.1875 67.6875 133.773438 C 69.046875 134.347656 69.6875 135.921875 69.105469 137.28125 C 62.351562 153.183594 58.929688 170.074219 58.929688 187.5 C 58.929688 188.980469 57.730469 190.179688 56.25 190.179688 Z M 56.25 190.179688 " fill-opacity="1" fill-rule="nonzero"/><path fill="#e2e5eb" d="M 74.292969 123.722656 C 73.832031 123.722656 73.367188 123.605469 72.9375 123.355469 C 71.664062 122.605469 71.238281 120.964844 71.984375 119.683594 C 73.105469 117.789062 74.269531 115.914062 75.476562 114.070312 C 76.292969 112.832031 77.953125 112.496094 79.183594 113.296875 C 80.421875 114.105469 80.765625 115.773438 79.957031 117.003906 C 78.792969 118.773438 77.671875 120.574219 76.601562 122.398438 C 76.105469 123.25 75.207031 123.722656 74.292969 123.722656 Z M 74.292969 123.722656 " fill-opacity="1" fill-rule="nonzero"/></svg>